<svg xmlns="http://www.w3.org/2000/svg" viewBox="0 0 95.294 99.586"><defs><style>.cls-1{fill:#452027;}.cls-2{fill:#f9a72b;fill-rule:evenodd;}</style></defs><g id="Ebene_2" data-name="Ebene 2"><g id="Ebene_1-2" data-name="Ebene 1"><path class="cls-1" d="M38.99,81.195c-2.641-1.812-5.067-3.855-5.7-5.593-.851-2.411.43-5.231,1.711-7.192,1.407,1.492,2.852,2.961,4.231,4.375.926.942,1.836,1.871,2.691,2.766,2.012,2.105,2.961,5.918,3.375,9.472-1.574-.859-4.023-2.261-6.312-3.828m13.394,3.4a17.578,17.578,0,0,0-.515-2.77c-.145-.593-.329-1.207-.543-1.832C49.955,74.695,45.04,68.5,35.9,60.449c-9.77-8.629-10.067-12.48-9.457-13.976-3.395,4.757-1.688,10.078,1.945,15.343a13.884,13.884,0,0,0-3.918,7.11c-.93,4.8,1.02,10.453,7.793,16.148,3.273,2.754,11.824,6.547,10.8,14.512,6.027-3.379,10.035-8.094,9.32-15"/><path class="cls-2" d="M70.88,61.77c-1.832,5.421-2.109,10.3-9.925,14.691-2.262,1.273-3.707,4.574-5.895,5.922v-.211c-1.5-3.106-1.289-10.293-.492-13.953C57.123,56.512,66.447,51.527,75.4,46.758c-1.891,4.512-2.672,10.183-4.52,15.012"/><path class="cls-2" d="M43.4,51.215l3.941,5.305-.375-13.926c-1.711-4.551-6.187-12.809-16.355-13.9C16.478,27.184,12.716,33,2.693,34.719a16.569,16.569,0,0,0,4.039,2.258s5.363,8.714,14.433,9.246a17.9,17.9,0,0,1-4.875-8.774S29.537,30.6,37.4,40.773c0,0-2.664,5.461-8.77,6.043,0,0,5.688,2.829,13.313-1.609.746.844,1.2,3.039,1.449,6.008"/><path class="cls-2" d="M55.044,49.387l-3.8,5.41,0-13.93v0C52.841,36.27,57.1,27.9,67.228,26.535c14.086-1.887,18,3.82,28.066,5.274a16.6,16.6,0,0,1-3.976,2.367S86.189,43.031,77.134,43.8a17.864,17.864,0,0,0,4.641-8.9s-13.422-6.5-21.016,3.887c0,0,2.809,5.387,8.926,5.805,0,0-5.609,2.98-13.348-1.25-.726.859-1.121,3.07-1.293,6.043"/><path class="cls-2" d="M1.3,0S.7,10.609,19.228,8.113,60.947-.3,62.955,22.641a59.2,59.2,0,0,0-7.071-7.192s-11.937,10.262-22.875,9.5c1.778.02-3.554-.027-5.332-.054C22.005,24.8.8,18.027.021,6A11.959,11.959,0,0,1,1.3,0"/></g></g></svg>